 <svg  version="1.0" xmlns="http://www.w3.org/2000/svg"  width="300.000000pt" height="300.000000pt" viewBox="0 0 300.000000 300.000000"  preserveAspectRatio="xMidYMid meet">  <g transform="translate(0.000000,300.000000) scale(0.100000,-0.100000)" fill="#f6f5f4" stroke="none"> <path d="M930 2521 l-565 -259 0 -707 0 -707 567 -315 568 -314 568 314 567 315 0 707 0 707 -555 254 c-305 140 -562 256 -570 259 -8 2 -269 -112 -580 -254z m992 -138 c225 -102 408 -189 408 -192 0 -10 -813 -455 -830 -455 -17 0 -830 445 -830 455 0 9 802 377 825 378 11 1 203 -83 427 -186z m-874 -618 l362 -200 0 -538 c0 -437 -2 -538 -13 -535 -7 2 -201 107 -430 233 l-416 230 -1 543 0 543 68 -38 c38 -21 232 -128 430 -238z m1402 -267 l-1 -543 -416 -230 c-229 -126 -423 -231 -430 -233 -11 -3 -13 98 -13 535 l0 538 428 237 c235 130 428 237 430 238 1 0 2 -244 2 -542z"/> </g> </svg> 