<?xml version="1.0" standalone="no"?>
<!DOCTYPE svg PUBLIC "-//W3C//DTD SVG 20010904//EN"
 "http://www.w3.org/TR/2001/REC-SVG-20010904/DTD/svg10.dtd">
<svg version="1.0" xmlns="http://www.w3.org/2000/svg"
 width="300.000000pt" height="226.000000pt" viewBox="0 0 300.000000 226.000000"
 preserveAspectRatio="xMidYMid meet">
<metadata>
Created by potrace 1.10, written by Peter Selinger 2001-2011
</metadata>
<g transform="translate(0.000000,226.000000) scale(0.050000,-0.050000)"
fill="#ffffff" stroke="none">
<path d="M4616 4003 c-307 -216 -309 -218 -191 -227 l85 -6 -6 -80 c-20 -261
-187 -907 -322 -1246 -540 -1355 -1506 -2054 -2902 -2101 -428 -14 -325 -37
186 -41 1916 -15 3263 1172 3627 3195 l37 207 85 -10 c47 -5 85 -3 84 3 -2 24
-369 490 -389 495 -11 2 -143 -83 -294 -189z"/>
</g>
</svg>
