<?xml version="1.0" standalone="no"?>
<!DOCTYPE svg PUBLIC "-//W3C//DTD SVG 20010904//EN"
 "http://www.w3.org/TR/2001/REC-SVG-20010904/DTD/svg10.dtd">
<svg version="1.0" xmlns="http://www.w3.org/2000/svg"
 width="900.000000pt" height="699.000000pt" viewBox="0 0 900.000000 699.000000"
 preserveAspectRatio="xMidYMid meet">
<metadata>
Created by potrace 1.10, written by Peter Selinger 2001-2011
</metadata>
<g transform="translate(0.000000,699.000000) scale(0.100000,-0.100000)"
fill="#ffffff" stroke="none">
<path d="M4300 6604 c-52 -8 -115 -19 -140 -25 -25 -6 -61 -15 -80 -19 -85
-19 -314 -117 -405 -173 -81 -49 -254 -189 -320 -258 -114 -119 -149 -165
-252 -334 -33 -54 -102 -205 -113 -250 -5 -16 -13 -43 -18 -60 -48 -142 -72
-301 -72 -475 0 -346 112 -680 322 -960 53 -69 142 -165 226 -242 29 -26 52
-50 52 -53 0 -3 -35 -22 -77 -41 -100 -46 -154 -73 -173 -84 -8 -5 -55 -32
-105 -61 -198 -116 -334 -220 -513 -393 -146 -141 -352 -401 -428 -541 -74
-136 -89 -164 -125 -236 -28 -58 -97 -229 -109 -274 -5 -16 -13 -43 -18 -60
-6 -16 -17 -55 -26 -85 -8 -30 -22 -80 -30 -111 -9 -31 -16 -67 -16 -81 0 -14
-6 -56 -14 -94 -26 -125 -36 -315 -36 -654 0 -344 3 -374 42 -446 22 -40 80
-85 136 -107 39 -16 229 -17 2501 -17 l2458 0 60 30 c70 35 118 95 139 173 17
64 19 569 4 782 -14 179 -49 395 -85 510 -6 22 -20 67 -30 100 -24 84 -59 177
-102 275 -52 116 -145 292 -169 321 -8 8 -14 18 -14 22 0 3 -21 36 -47 74
-231 338 -510 600 -873 820 -75 45 -312 163 -329 163 -26 0 -5 27 84 112 91
86 231 261 282 351 189 340 258 685 204 1032 -21 134 -37 204 -57 253 -8 18
-14 39 -14 46 0 13 -29 83 -72 176 -125 266 -360 520 -628 682 -70 41 -202
108 -216 108 -3 0 -20 6 -37 13 -87 37 -195 64 -350 88 -148 22 -281 23 -417
3z m419 -449 c186 -43 280 -82 421 -173 99 -65 249 -209 312 -302 46 -66 110
-182 121 -216 3 -11 15 -44 26 -74 77 -200 83 -481 15 -705 -73 -240 -225
-455 -423 -600 -146 -107 -284 -168 -471 -209 -143 -31 -405 -19 -535 26 -16
5 -44 13 -61 17 -50 13 -199 89 -278 142 -109 74 -253 222 -323 334 -30 47
-111 224 -126 275 -43 145 -47 176 -47 345 0 216 21 309 121 530 5 11 18 34
29 50 11 17 23 37 27 45 27 61 188 233 283 304 130 97 280 164 465 209 85 21
358 22 444 2z m26 -2705 c55 -6 129 -17 165 -25 36 -9 72 -15 81 -15 9 0 41
-7 70 -16 137 -40 256 -78 279 -89 14 -7 41 -19 60 -27 285 -127 515 -285 723
-498 142 -145 269 -315 358 -477 88 -159 128 -250 178 -403 86 -263 113 -452
109 -760 l-3 -225 -2254 -3 c-1325 -1 -2259 2 -2264 7 -15 15 -8 494 9 601 22
135 62 306 89 380 75 204 114 291 189 420 68 116 135 215 202 296 379 465 918
763 1504 832 109 13 389 14 505 2z"/>
<path d="M2675 6063 c-469 -88 -852 -400 -1019 -830 -36 -93 -44 -121 -59
-188 -89 -394 1 -797 250 -1119 29 -38 53 -73 53 -78 0 -5 -10 -13 -22 -19
-13 -5 -32 -15 -43 -22 -11 -7 -43 -25 -70 -41 -88 -52 -279 -203 -371 -294
-119 -117 -259 -293 -329 -414 -120 -207 -201 -406 -249 -618 -48 -214 -50
-241 -51 -615 0 -353 0 -361 22 -401 28 -53 74 -99 127 -127 38 -20 57 -22
297 -25 170 -3 263 0 277 7 17 9 20 25 27 138 3 70 13 158 21 195 9 37 14 82
12 100 l-3 33 -160 5 -160 5 0 165 c0 211 17 334 73 515 92 303 299 597 557
791 154 116 344 212 510 259 123 34 160 48 197 73 85 56 130 173 104 270 -23
86 -77 143 -181 193 -138 66 -269 186 -343 314 -82 141 -103 214 -109 381 -4
113 -2 141 16 198 45 145 139 291 247 381 32 28 61 52 64 56 22 24 113 74 267
146 17 9 34 23 36 32 39 122 110 260 211 411 46 69 82 128 79 133 -7 12 -194
6 -278 -10z"/>
<path d="M6055 6070 c-3 -6 8 -32 26 -58 123 -180 116 -167 174 -282 43 -86
58 -119 78 -175 10 -28 24 -45 48 -57 19 -9 68 -33 109 -53 90 -43 98 -48 175
-104 159 -117 272 -259 328 -414 31 -88 31 -300 -1 -399 -73 -229 -212 -394
-425 -502 -138 -71 -189 -141 -189 -263 1 -66 4 -79 33 -125 53 -82 85 -100
277 -154 105 -30 301 -118 399 -181 74 -46 192 -143 266 -216 85 -85 227 -268
254 -327 4 -8 18 -35 33 -60 47 -81 102 -224 133 -345 39 -152 48 -237 45
-420 l-3 -180 -169 -3 c-106 -1 -175 -7 -183 -14 -15 -12 -11 -61 13 -185 8
-40 14 -115 14 -167 0 -87 2 -96 21 -107 15 -8 99 -10 283 -7 l261 5 47 27
c51 29 94 79 121 138 15 31 17 78 17 369 0 251 -4 356 -15 428 -19 115 -44
235 -57 276 -6 17 -14 46 -18 65 -4 19 -18 60 -30 90 -12 30 -25 67 -30 82 -9
30 -85 187 -128 263 -103 187 -279 399 -454 551 -100 87 -289 219 -359 251
-21 10 -39 24 -39 32 0 7 30 54 68 105 83 114 171 287 205 406 49 170 50 180
51 385 0 205 -1 212 -51 385 -21 74 -71 194 -105 253 -15 26 -28 50 -28 53 0
13 -147 198 -200 252 -60 62 -182 158 -254 202 -52 31 -193 100 -205 100 -6 0
-25 6 -43 14 -50 21 -133 44 -226 61 -93 17 -258 20 -267 5z"/>
</g>
</svg>
